# xmcd CD database file
#
# Track frame offsets:
#	150
#	16758
#	30269
#	50790
#	69669
#	83885
#	99079
#	121185
#	141385
#	158944
#	181154
#	194232
#
# Disc length: 2821 seconds
#
# Revision: 3
# Processed by: cddbd v1.4PL0 Copyright (c) Steve Scherf et al.
# Submitted via: CDex 1.40Beta9
#
DISCID=9d0b030c
DTITLE=Keith Urban - Keith Urban
DYEAR=1999
DGENRE=Country
TTITLE0=It's A Love Thing
TTITLE1=Where The Blacktop Ends
TTITLE2=But For The Grace Of God
TTITLE3=Your Everything
TTITLE4=I Wanna Be Your Man (Forever)
TTITLE5=A Little Luck Of Our Own
TTITLE6=You're The Only One
TTITLE7=If You Wanna Stay
TTITLE8=Don't Shut Me Out
TTITLE9=Out On My Own
TTITLE10=Rollercoaster
TTITLE11=I Thought You Knew
EXTD=\n YEAR: 1999 ID3G: 2
EXTT0=
EXTT1=
EXTT2=
EXTT3=
EXTT4=
EXTT5=
EXTT6=
EXTT7=
EXTT8=
EXTT9=
EXTT10=
EXTT11=
PLAYORDER=
